<?xml version="1.0" encoding="utf-8"?>
<!-- Generator: Adobe Illustrator 19.0.0, SVG Export Plug-In . SVG Version: 6.00 Build 0)  -->
<svg version="1.1" id="Livello_1" xmlns="http://www.w3.org/2000/svg" xmlns:xlink="http://www.w3.org/1999/xlink" x="0px" y="0px"
	 viewBox="0 0 141 80" style="enable-background:new 0 0 141 80;" xml:space="preserve">
<style type="text/css">
	.st0{clip-path:url(#XMLID_195_);fill:#CD2831;}
	.st1{clip-path:url(#XMLID_195_);fill:#1C1C20;}
	.st2{fill:#1C1C20;}
	.st3{clip-path:url(#XMLID_196_);fill:#1C1C20;}
	.st4{clip-path:url(#XMLID_197_);fill:#1C1C20;}
	.st5{clip-path:url(#XMLID_198_);fill:#1C1C20;}
	.st6{clip-path:url(#XMLID_199_);fill:#1C1C20;}
	.st7{clip-path:url(#XMLID_200_);fill:#1C1C20;}
	.st8{clip-path:url(#XMLID_201_);fill:#CD2831;}
	.st9{clip-path:url(#XMLID_201_);fill:none;stroke:#CD2831;stroke-width:0.237;stroke-miterlimit:10;}
	.st10{clip-path:url(#XMLID_201_);fill:none;stroke:#CD2831;stroke-width:0.248;}
	.st11{clip-path:url(#XMLID_202_);fill:#FFFFFF;}
	.st12{clip-path:url(#XMLID_202_);fill:none;stroke:#CD2831;stroke-width:0.166;}
	.st13{clip-path:url(#XMLID_202_);fill:none;stroke:#CD2831;stroke-width:0.141;stroke-miterlimit:10;}
	.st14{clip-path:url(#XMLID_203_);fill:#FFFFFF;}
	.st15{clip-path:url(#XMLID_203_);fill:none;stroke:#CD2831;stroke-width:0.166;}
	.st16{clip-path:url(#XMLID_203_);fill:none;stroke:#CD2831;stroke-width:0.141;stroke-miterlimit:10;}
	.st17{clip-path:url(#XMLID_203_);fill:#E08973;}
	.st18{clip-path:url(#XMLID_204_);fill:#E08973;}
	.st19{clip-path:url(#XMLID_204_);fill:none;stroke:#CD2831;stroke-width:0.166;}
	.st20{clip-path:url(#XMLID_204_);fill:none;stroke:#CD2831;stroke-width:0.141;stroke-miterlimit:10;}
	.st21{clip-path:url(#XMLID_205_);fill:#E08973;}
	.st22{clip-path:url(#XMLID_205_);fill:none;stroke:#CD2831;stroke-width:0.166;}
	.st23{clip-path:url(#XMLID_205_);fill:none;stroke:#CD2831;stroke-width:0.141;stroke-miterlimit:10;}
	.st24{clip-path:url(#XMLID_206_);fill:#E08973;}
	.st25{clip-path:url(#XMLID_206_);fill:none;stroke:#CD2831;stroke-width:0.166;}
	.st26{clip-path:url(#XMLID_206_);fill:none;stroke:#CD2831;stroke-width:0.141;stroke-miterlimit:10;}
	.st27{clip-path:url(#XMLID_207_);fill:#E08973;}
	.st28{clip-path:url(#XMLID_207_);fill:none;stroke:#CD2831;stroke-width:0.166;}
	.st29{clip-path:url(#XMLID_207_);fill:none;stroke:#CD2831;stroke-width:0.141;stroke-miterlimit:10;}
	.st30{clip-path:url(#XMLID_208_);fill:#E08973;}
	.st31{clip-path:url(#XMLID_208_);fill:none;stroke:#CD2831;stroke-width:0.166;}
	.st32{clip-path:url(#XMLID_208_);fill:none;stroke:#CD2831;stroke-width:0.141;stroke-miterlimit:10;}
	.st33{clip-path:url(#XMLID_209_);fill:#E08973;}
	.st34{clip-path:url(#XMLID_209_);fill:none;stroke:#CD2831;stroke-width:0.166;}
	.st35{clip-path:url(#XMLID_209_);fill:none;stroke:#CD2831;stroke-width:0.141;stroke-miterlimit:10;}
	.st36{clip-path:url(#XMLID_209_);fill:#FFFFFF;}
	.st37{fill:#E08973;}
	.st38{fill:none;stroke:#CD2831;stroke-width:0.166;}
	.st39{fill:none;stroke:#CD2831;stroke-width:0.141;stroke-miterlimit:10;}
	.st40{fill:#FFFFFF;}
</style>
<g>
	<g>
		<defs>
			<rect id="XMLID_183_" x="4.8" y="10.4" width="133.5" height="60.8"/>
		</defs>
		<clipPath id="XMLID_195_">
			<use xlink:href="#XMLID_183_"  style="overflow:visible;"/>
		</clipPath>
		<path id="XMLID_187_" class="st0" d="M45.9,12.2v26.3c0,13-8.1,18.9-20.6,18.9c-12.4,0-20.6-5.9-20.6-18.9V12.2h16.1v24.7
			c0,3.5,0.1,6.5,4.4,6.5c4.3,0,4.4-3.1,4.4-6.5V12.2H45.9z"/>
		<path class="st0" d="M67.1,32.1h1.6c2.8,0,5.9-0.5,5.9-4.1c0-3.5-3.3-3.7-6-3.7h-1.5V32.1z M51.6,12.2H72c10.4,0,18,5.3,18,16.3
			c0,9.1-5.7,14.7-14.7,14.7h-8.2v13.4H51.6V12.2z"/>
		<path id="XMLID_184_" class="st1" d="M8.5,65.4v3.3c0,0.9,0.3,1.7,1.3,1.7c1.1,0,1.3-0.8,1.3-1.7v-3.3h0.7v3.5
			c0,1.2-0.8,2.1-2,2.1c-1.3,0-2-0.9-2-2.1v-3.5H8.5z"/>
	</g>
	<polygon id="XMLID_182_" class="st2" points="12.7,70.9 13.4,70.9 13.4,66.8 17.5,71.1 17.5,65.4 16.8,65.4 16.8,69.4 12.7,65.1 	
		"/>
	<rect id="XMLID_181_" x="18.5" y="65.4" class="st2" width="0.7" height="5.5"/>
	<polygon id="XMLID_180_" class="st2" points="23.6,65.4 22,69.4 20.4,65.4 19.6,65.4 22,71.2 24.4,65.4 	"/>
	<polygon id="XMLID_179_" class="st2" points="24.9,65.4 24.9,70.9 27.8,70.9 27.8,70.2 25.6,70.2 25.6,68.2 27.8,68.2 27.8,67.5 
		25.6,67.5 25.6,66 27.8,66 27.8,65.4 	"/>
	<g>
		<defs>
			<rect id="XMLID_175_" x="4.8" y="10.4" width="133.5" height="60.8"/>
		</defs>
		<clipPath id="XMLID_196_">
			<use xlink:href="#XMLID_175_"  style="overflow:visible;"/>
		</clipPath>
		<path class="st3" d="M29.4,68h0.2c0.7,0,1.5-0.1,1.5-1c0-0.9-0.8-1-1.5-1h-0.2V68z M32.1,70.9h-0.8l-1.6-2.3h-0.3v2.3h-0.7v-5.5
			h0.8c0.5,0,1,0,1.5,0.3c0.5,0.3,0.7,0.8,0.7,1.3c0,0.8-0.5,1.4-1.3,1.5L32.1,70.9z"/>
		<path id="XMLID_176_" class="st3" d="M35.1,66.4c-0.2-0.3-0.5-0.5-0.9-0.5c-0.4,0-0.9,0.3-0.9,0.8c0,0.4,0.4,0.7,0.8,0.8l0.4,0.2
			c0.8,0.3,1.4,0.7,1.4,1.7c0,1-0.8,1.7-1.8,1.7c-0.9,0-1.6-0.7-1.7-1.5l0.7-0.1c0,0.6,0.5,1,1.1,1c0.6,0,1-0.5,1-1.1
			c0-0.6-0.5-0.8-1-1l-0.4-0.2c-0.6-0.3-1.2-0.6-1.2-1.4c0-0.9,0.8-1.4,1.6-1.4c0.6,0,1.1,0.3,1.4,0.8L35.1,66.4z"/>
	</g>
	<rect id="XMLID_174_" x="36.5" y="65.4" class="st2" width="0.7" height="5.5"/>
	<polygon id="XMLID_173_" class="st2" points="37.7,65.4 37.7,66 39.1,66 39.1,70.9 39.7,70.9 39.7,66 41,66 41,65.4 	"/>
	<path class="st2" d="M43.1,66.6l1,2.2h-2L43.1,66.6z M40.4,70.9h0.7l0.6-1.4h2.5l0.6,1.4h0.7l-2.6-5.7L40.4,70.9z M42,63.9l1.2,1.1
		l0.3-0.2l-0.9-1.2L42,63.9z"/>
	<g>
		<defs>
			<rect id="XMLID_167_" x="4.8" y="10.4" width="133.5" height="60.8"/>
		</defs>
		<clipPath id="XMLID_197_">
			<use xlink:href="#XMLID_167_"  style="overflow:visible;"/>
		</clipPath>
		<path class="st4" d="M48.9,70.2h0.2c1.4,0,2.6-0.5,2.6-2.1c0-1.6-1.2-2.1-2.6-2.1h-0.2V70.2z M48.2,65.4h1.1
			c1.7,0,3.1,0.9,3.1,2.7c0,1.9-1.4,2.8-3.1,2.8h-1.1V65.4z"/>
	</g>
	<polygon id="XMLID_166_" class="st2" points="53.1,65.4 53.1,70.9 56.1,70.9 56.1,70.2 53.8,70.2 53.8,68.2 56,68.2 56,67.5 
		53.8,67.5 53.8,66 56.1,66 56.1,65.4 	"/>
	<polygon id="XMLID_165_" class="st2" points="56.9,65.4 56.9,70.9 59.3,70.9 59.3,70.2 57.6,70.2 57.6,65.4 	"/>
	<g>
		<defs>
			<rect id="XMLID_162_" x="4.8" y="10.4" width="133.5" height="60.8"/>
		</defs>
		<clipPath id="XMLID_198_">
			<use xlink:href="#XMLID_162_"  style="overflow:visible;"/>
		</clipPath>
		<path class="st5" d="M62.5,68h0.2c0.7,0,1.5-0.1,1.5-1c0-0.9-0.8-1-1.5-1h-0.2V68z M62.5,70.9h-0.7v-5.5h0.8
			c1.7,0,2.2,0.6,2.2,1.6c0,1.2-0.9,1.6-1.9,1.6h-0.4V70.9z"/>
	</g>
	<rect id="XMLID_161_" x="65.4" y="65.4" class="st2" width="0.7" height="5.5"/>
	<polygon id="XMLID_160_" class="st2" points="67.2,65.4 67.2,70.9 70.1,70.9 70.1,70.2 67.8,70.2 67.8,68.2 70,68.2 70,67.5 
		67.8,67.5 67.8,66 70.1,66 70.1,65.4 	"/>
	<polygon id="XMLID_159_" class="st2" points="73.5,69.5 71.7,65.1 70.5,70.9 71.2,70.9 71.9,67.2 71.9,67.2 73.5,71 75.2,67.2 
		75.2,67.2 75.9,70.9 76.6,70.9 75.4,65.1 	"/>
	<g>
		<defs>
			<rect id="XMLID_156_" x="4.8" y="10.4" width="133.5" height="60.8"/>
		</defs>
		<clipPath id="XMLID_199_">
			<use xlink:href="#XMLID_156_"  style="overflow:visible;"/>
		</clipPath>
		<path class="st6" d="M81.9,68.1c0-1.2-0.9-2.2-2.2-2.2c-1.3,0-2.2,1-2.2,2.2c0,1.3,1,2.2,2.2,2.2C80.9,70.3,81.9,69.4,81.9,68.1
			 M82.6,68.1c0,1.6-1.3,2.9-2.9,2.9c-1.6,0-2.9-1.2-2.9-2.9c0-1.6,1.3-2.9,2.9-2.9C81.3,65.2,82.6,66.5,82.6,68.1"/>
	</g>
	<polygon id="XMLID_155_" class="st2" points="83.2,70.9 83.8,70.9 83.8,66.8 88,71.1 88,65.4 87.3,65.4 87.3,69.4 83.2,65.1 	"/>
	<polygon id="XMLID_154_" class="st2" points="88.5,65.4 88.5,66 89.8,66 89.8,70.9 90.4,70.9 90.4,66 91.8,66 91.8,65.4 	"/>
	<polygon id="XMLID_153_" class="st2" points="92.3,65.4 92.3,70.9 95.3,70.9 95.3,70.2 93,70.2 93,68.2 95.2,68.2 95.2,67.5 
		93,67.5 93,66 95.3,66 95.3,65.4 	"/>
	<g>
		<defs>
			<rect id="XMLID_148_" x="4.8" y="10.4" width="133.5" height="60.8"/>
		</defs>
		<clipPath id="XMLID_200_">
			<use xlink:href="#XMLID_148_"  style="overflow:visible;"/>
		</clipPath>
		<path class="st7" d="M102.9,68.1c0-1.2-0.9-2.2-2.2-2.2c-1.3,0-2.2,1-2.2,2.2c0,1.3,1,2.2,2.2,2.2
			C101.9,70.3,102.9,69.4,102.9,68.1 M103.6,68.1c0,1.6-1.3,2.9-2.9,2.9c-1.6,0-2.9-1.2-2.9-2.9c0-1.6,1.3-2.9,2.9-2.9
			C102.3,65.2,103.6,66.5,103.6,68.1"/>
		<path class="st7" d="M105,68h0.2c0.7,0,1.5-0.1,1.5-1c0-0.9-0.8-1-1.5-1H105V68z M107.7,70.9h-0.8l-1.6-2.3H105v2.3h-0.7v-5.5h0.8
			c0.5,0,1,0,1.5,0.3c0.5,0.3,0.7,0.8,0.7,1.3c0,0.8-0.5,1.4-1.3,1.5L107.7,70.9z"/>
	</g>
	<rect id="XMLID_147_" x="108.2" y="65.4" class="st2" width="0.7" height="5.5"/>
	<polygon id="XMLID_146_" class="st2" points="109.9,65.4 109.9,70.9 112.9,70.9 112.9,70.2 110.6,70.2 110.6,68.2 112.8,68.2 
		112.8,67.5 110.6,67.5 110.6,66 112.9,66 112.9,65.4 	"/>
	<polygon id="XMLID_145_" class="st2" points="113.7,70.9 114.4,70.9 114.4,66.8 118.5,71.1 118.5,65.4 117.8,65.4 117.8,69.4 
		113.7,65.1 	"/>
	<polygon id="XMLID_144_" class="st2" points="119,65.4 119,66 120.3,66 120.3,70.9 121,70.9 121,66 122.3,66 122.3,65.4 	"/>
	<path class="st2" d="M124.3,66.6l1,2.2h-2L124.3,66.6z M121.6,70.9h0.7l0.6-1.4h2.5l0.6,1.4h0.7l-2.6-5.7L121.6,70.9z"/>
	<polygon id="XMLID_141_" class="st2" points="127.4,65.4 127.4,70.9 129.7,70.9 129.7,70.2 128,70.2 128,65.4 	"/>
	<polygon id="XMLID_140_" class="st2" points="130.2,65.4 130.2,70.9 133.1,70.9 133.1,70.2 130.9,70.2 130.9,68.2 133.1,68.2 
		133.1,67.5 130.9,67.5 130.9,66 133.1,66 133.1,65.4 	"/>
	<g>
		<defs>
			<rect id="XMLID_135_" x="4.8" y="10.4" width="133.5" height="60.8"/>
		</defs>
		<clipPath id="XMLID_201_">
			<use xlink:href="#XMLID_135_"  style="overflow:visible;"/>
		</clipPath>
		<path id="XMLID_139_" class="st8" d="M115,56.7c12.7,0,23-10.3,23-23s-10.3-23-23-23s-23,10.3-23,23S102.3,56.7,115,56.7"/>
		<path id="XMLID_138_" class="st9" d="M115,56.7c12.7,0,23-10.3,23-23s-10.3-23-23-23s-23,10.3-23,23S102.3,56.7,115,56.7"/>
		<path id="XMLID_137_" class="st8" d="M115,56.7c12.7,0,23-10.3,23-23s-10.3-23-23-23s-23,10.3-23,23S102.3,56.7,115,56.7"/>
		<circle id="XMLID_136_" class="st10" cx="115" cy="33.6" r="23"/>
	</g>
	<g>
		<defs>
			<rect id="XMLID_131_" x="99.7" y="15.9" width="30.6" height="34.1"/>
		</defs>
		<clipPath id="XMLID_202_">
			<use xlink:href="#XMLID_131_"  style="overflow:visible;"/>
		</clipPath>
		<path id="XMLID_134_" class="st11" d="M120.5,18c0,0.9-0.8,1.7-1.7,1.7c-0.9,0-1.7-0.8-1.7-1.7c0-0.9,0.8-1.7,1.7-1.7
			C119.7,16.3,120.5,17,120.5,18"/>
		<path id="XMLID_133_" class="st12" d="M120.5,18c0,0.9-0.8,1.7-1.7,1.7c-0.9,0-1.7-0.8-1.7-1.7c0-0.9,0.8-1.7,1.7-1.7
			C119.7,16.3,120.5,17,120.5,18"/>
		<circle id="XMLID_132_" class="st13" cx="118.8" cy="18" r="1.7"/>
	</g>
	<g>
		<defs>
			<rect id="XMLID_67_" x="4.8" y="10.4" width="133.5" height="60.8"/>
		</defs>
		<clipPath id="XMLID_203_">
			<use xlink:href="#XMLID_67_"  style="overflow:visible;"/>
		</clipPath>
		<path id="XMLID_130_" class="st14" d="M120.5,21.4c0,0.9-0.8,1.7-1.7,1.7c-0.9,0-1.7-0.8-1.7-1.7c0-0.9,0.8-1.7,1.7-1.7
			C119.7,19.7,120.5,20.4,120.5,21.4"/>
		<path id="XMLID_129_" class="st15" d="M120.5,21.4c0,0.9-0.8,1.7-1.7,1.7c-0.9,0-1.7-0.8-1.7-1.7c0-0.9,0.8-1.7,1.7-1.7
			C119.7,19.7,120.5,20.4,120.5,21.4"/>
		<circle id="XMLID_128_" class="st16" cx="118.8" cy="21.4" r="1.7"/>
		<path id="XMLID_127_" class="st14" d="M120.5,24.8c0,0.9-0.8,1.7-1.7,1.7c-0.9,0-1.7-0.8-1.7-1.7c0-0.9,0.8-1.7,1.7-1.7
			C119.7,23.1,120.5,23.9,120.5,24.8"/>
		<path id="XMLID_126_" class="st15" d="M120.5,24.8c0,0.9-0.8,1.7-1.7,1.7c-0.9,0-1.7-0.8-1.7-1.7c0-0.9,0.8-1.7,1.7-1.7
			C119.7,23.1,120.5,23.9,120.5,24.8"/>
		<circle id="XMLID_125_" class="st16" cx="118.8" cy="24.8" r="1.7"/>
		<path id="XMLID_124_" class="st14" d="M120.5,28.2c0,0.9-0.8,1.7-1.7,1.7c-0.9,0-1.7-0.8-1.7-1.7c0-0.9,0.8-1.7,1.7-1.7
			C119.7,26.5,120.5,27.3,120.5,28.2"/>
		<path id="XMLID_123_" class="st15" d="M120.5,28.2c0,0.9-0.8,1.7-1.7,1.7c-0.9,0-1.7-0.8-1.7-1.7c0-0.9,0.8-1.7,1.7-1.7
			C119.7,26.5,120.5,27.3,120.5,28.2"/>
		<circle id="XMLID_122_" class="st16" cx="118.8" cy="28.2" r="1.7"/>
		<path id="XMLID_121_" class="st14" d="M123.9,24.8c0,0.9-0.8,1.7-1.7,1.7c-0.9,0-1.7-0.8-1.7-1.7c0-0.9,0.8-1.7,1.7-1.7
			C123.2,23.1,123.9,23.9,123.9,24.8"/>
		<path id="XMLID_120_" class="st15" d="M123.9,24.8c0,0.9-0.8,1.7-1.7,1.7c-0.9,0-1.7-0.8-1.7-1.7c0-0.9,0.8-1.7,1.7-1.7
			C123.2,23.1,123.9,23.9,123.9,24.8"/>
		<circle id="XMLID_119_" class="st16" cx="122.2" cy="24.8" r="1.7"/>
		<path id="XMLID_118_" class="st14" d="M123.9,28.2c0,0.9-0.8,1.7-1.7,1.7c-0.9,0-1.7-0.8-1.7-1.7c0-0.9,0.8-1.7,1.7-1.7
			C123.2,26.5,123.9,27.3,123.9,28.2"/>
		<path id="XMLID_117_" class="st15" d="M123.9,28.2c0,0.9-0.8,1.7-1.7,1.7c-0.9,0-1.7-0.8-1.7-1.7c0-0.9,0.8-1.7,1.7-1.7
			C123.2,26.5,123.9,27.3,123.9,28.2"/>
		<circle id="XMLID_116_" class="st16" cx="122.2" cy="28.2" r="1.7"/>
		<path id="XMLID_115_" class="st14" d="M120.5,31.6c0,0.9-0.8,1.7-1.7,1.7c-0.9,0-1.7-0.8-1.7-1.7c0-0.9,0.8-1.7,1.7-1.7
			C119.7,29.9,120.5,30.7,120.5,31.6"/>
		<path id="XMLID_114_" class="st15" d="M120.5,31.6c0,0.9-0.8,1.7-1.7,1.7c-0.9,0-1.7-0.8-1.7-1.7c0-0.9,0.8-1.7,1.7-1.7
			C119.7,29.9,120.5,30.7,120.5,31.6"/>
		<circle id="XMLID_113_" class="st16" cx="118.8" cy="31.6" r="1.7"/>
		<path id="XMLID_112_" class="st14" d="M120.5,35.1c0,0.9-0.8,1.7-1.7,1.7c-0.9,0-1.7-0.8-1.7-1.7c0-0.9,0.8-1.7,1.7-1.7
			C119.7,33.3,120.5,34.1,120.5,35.1"/>
		<path id="XMLID_111_" class="st15" d="M120.5,35.1c0,0.9-0.8,1.7-1.7,1.7c-0.9,0-1.7-0.8-1.7-1.7c0-0.9,0.8-1.7,1.7-1.7
			C119.7,33.3,120.5,34.1,120.5,35.1"/>
		<circle id="XMLID_110_" class="st16" cx="118.8" cy="35.1" r="1.7"/>
		<path id="XMLID_109_" class="st14" d="M120.5,38.5c0,0.9-0.8,1.7-1.7,1.7c-0.9,0-1.7-0.8-1.7-1.7c0-0.9,0.8-1.7,1.7-1.7
			C119.7,36.8,120.5,37.5,120.5,38.5"/>
		<path id="XMLID_108_" class="st15" d="M120.5,38.5c0,0.9-0.8,1.7-1.7,1.7c-0.9,0-1.7-0.8-1.7-1.7c0-0.9,0.8-1.7,1.7-1.7
			C119.7,36.8,120.5,37.5,120.5,38.5"/>
		<circle id="XMLID_107_" class="st16" cx="118.8" cy="38.5" r="1.7"/>
		<path id="XMLID_106_" class="st14" d="M120.5,41.9c0,0.9-0.8,1.7-1.7,1.7c-0.9,0-1.7-0.8-1.7-1.7c0-0.9,0.8-1.7,1.7-1.7
			C119.7,40.2,120.5,41,120.5,41.9"/>
		<path id="XMLID_105_" class="st15" d="M120.5,41.9c0,0.9-0.8,1.7-1.7,1.7c-0.9,0-1.7-0.8-1.7-1.7c0-0.9,0.8-1.7,1.7-1.7
			C119.7,40.2,120.5,41,120.5,41.9"/>
		<circle id="XMLID_104_" class="st16" cx="118.8" cy="41.9" r="1.7"/>
		<path id="XMLID_103_" class="st14" d="M123.9,35.1c0,0.9-0.8,1.7-1.7,1.7c-0.9,0-1.7-0.8-1.7-1.7c0-0.9,0.8-1.7,1.7-1.7
			C123.2,33.3,123.9,34.1,123.9,35.1"/>
		<path id="XMLID_102_" class="st15" d="M123.9,35.1c0,0.9-0.8,1.7-1.7,1.7c-0.9,0-1.7-0.8-1.7-1.7c0-0.9,0.8-1.7,1.7-1.7
			C123.2,33.3,123.9,34.1,123.9,35.1"/>
		<circle id="XMLID_101_" class="st16" cx="122.2" cy="35.1" r="1.7"/>
		<path id="XMLID_100_" class="st14" d="M123.9,41.9c0,0.9-0.8,1.7-1.7,1.7c-0.9,0-1.7-0.8-1.7-1.7c0-0.9,0.8-1.7,1.7-1.7
			C123.2,40.2,123.9,41,123.9,41.9"/>
		<path id="XMLID_99_" class="st15" d="M123.9,41.9c0,0.9-0.8,1.7-1.7,1.7c-0.9,0-1.7-0.8-1.7-1.7c0-0.9,0.8-1.7,1.7-1.7
			C123.2,40.2,123.9,41,123.9,41.9"/>
		<circle id="XMLID_98_" class="st16" cx="122.2" cy="41.9" r="1.7"/>
		<path id="XMLID_97_" class="st14" d="M127.3,41.9c0,0.9-0.8,1.7-1.7,1.7c-0.9,0-1.7-0.8-1.7-1.7c0-0.9,0.8-1.7,1.7-1.7
			C126.6,40.2,127.3,41,127.3,41.9"/>
		<path id="XMLID_96_" class="st15" d="M127.3,41.9c0,0.9-0.8,1.7-1.7,1.7c-0.9,0-1.7-0.8-1.7-1.7c0-0.9,0.8-1.7,1.7-1.7
			C126.6,40.2,127.3,41,127.3,41.9"/>
		<circle id="XMLID_95_" class="st16" cx="125.6" cy="41.9" r="1.7"/>
		<path id="XMLID_94_" class="st14" d="M120.5,45.3c0,0.9-0.8,1.7-1.7,1.7c-0.9,0-1.7-0.8-1.7-1.7c0-0.9,0.8-1.7,1.7-1.7
			C119.7,43.6,120.5,44.4,120.5,45.3"/>
		<path id="XMLID_93_" class="st15" d="M120.5,45.3c0,0.9-0.8,1.7-1.7,1.7c-0.9,0-1.7-0.8-1.7-1.7c0-0.9,0.8-1.7,1.7-1.7
			C119.7,43.6,120.5,44.4,120.5,45.3"/>
		<circle id="XMLID_92_" class="st16" cx="118.8" cy="45.3" r="1.7"/>
		<path id="XMLID_91_" class="st14" d="M117.1,21.4c0,0.9-0.8,1.7-1.7,1.7c-0.9,0-1.7-0.8-1.7-1.7c0-0.9,0.8-1.7,1.7-1.7
			C116.3,19.7,117.1,20.4,117.1,21.4"/>
		<path id="XMLID_90_" class="st15" d="M117.1,21.4c0,0.9-0.8,1.7-1.7,1.7c-0.9,0-1.7-0.8-1.7-1.7c0-0.9,0.8-1.7,1.7-1.7
			C116.3,19.7,117.1,20.4,117.1,21.4"/>
		<circle id="XMLID_89_" class="st16" cx="115.4" cy="21.4" r="1.7"/>
		<path id="XMLID_88_" class="st14" d="M117.1,24.8c0,0.9-0.8,1.7-1.7,1.7c-0.9,0-1.7-0.8-1.7-1.7c0-0.9,0.8-1.7,1.7-1.7
			C116.3,23.1,117.1,23.9,117.1,24.8"/>
		<path id="XMLID_87_" class="st15" d="M117.1,24.8c0,0.9-0.8,1.7-1.7,1.7c-0.9,0-1.7-0.8-1.7-1.7c0-0.9,0.8-1.7,1.7-1.7
			C116.3,23.1,117.1,23.9,117.1,24.8"/>
		<circle id="XMLID_86_" class="st16" cx="115.4" cy="24.8" r="1.7"/>
		<path id="XMLID_85_" class="st14" d="M117.1,28.2c0,0.9-0.8,1.7-1.7,1.7c-0.9,0-1.7-0.8-1.7-1.7c0-0.9,0.8-1.7,1.7-1.7
			C116.3,26.5,117.1,27.3,117.1,28.2"/>
		<path id="XMLID_84_" class="st15" d="M117.1,28.2c0,0.9-0.8,1.7-1.7,1.7c-0.9,0-1.7-0.8-1.7-1.7c0-0.9,0.8-1.7,1.7-1.7
			C116.3,26.5,117.1,27.3,117.1,28.2"/>
		<circle id="XMLID_83_" class="st16" cx="115.4" cy="28.2" r="1.7"/>
		<path id="XMLID_82_" class="st14" d="M117.1,31.6c0,0.9-0.8,1.7-1.7,1.7c-0.9,0-1.7-0.8-1.7-1.7c0-0.9,0.8-1.7,1.7-1.7
			C116.3,29.9,117.1,30.7,117.1,31.6"/>
		<path id="XMLID_81_" class="st15" d="M117.1,31.6c0,0.9-0.8,1.7-1.7,1.7c-0.9,0-1.7-0.8-1.7-1.7c0-0.9,0.8-1.7,1.7-1.7
			C116.3,29.9,117.1,30.7,117.1,31.6"/>
		<circle id="XMLID_80_" class="st16" cx="115.4" cy="31.6" r="1.7"/>
		<path id="XMLID_79_" class="st14" d="M117.1,35.1c0,0.9-0.8,1.7-1.7,1.7c-0.9,0-1.7-0.8-1.7-1.7c0-0.9,0.8-1.7,1.7-1.7
			C116.3,33.3,117.1,34.1,117.1,35.1"/>
		<path id="XMLID_78_" class="st15" d="M117.1,35.1c0,0.9-0.8,1.7-1.7,1.7c-0.9,0-1.7-0.8-1.7-1.7c0-0.9,0.8-1.7,1.7-1.7
			C116.3,33.3,117.1,34.1,117.1,35.1"/>
		<circle id="XMLID_77_" class="st16" cx="115.4" cy="35.1" r="1.7"/>
		<path id="XMLID_76_" class="st14" d="M117.1,38.5c0,0.9-0.8,1.7-1.7,1.7c-0.9,0-1.7-0.8-1.7-1.7c0-0.9,0.8-1.7,1.7-1.7
			C116.3,36.8,117.1,37.5,117.1,38.5"/>
		<path id="XMLID_75_" class="st15" d="M117.1,38.5c0,0.9-0.8,1.7-1.7,1.7c-0.9,0-1.7-0.8-1.7-1.7c0-0.9,0.8-1.7,1.7-1.7
			C116.3,36.8,117.1,37.5,117.1,38.5"/>
		<circle id="XMLID_74_" class="st16" cx="115.4" cy="38.5" r="1.7"/>
		<path id="XMLID_73_" class="st14" d="M117.1,41.9c0,0.9-0.8,1.7-1.7,1.7c-0.9,0-1.7-0.8-1.7-1.7c0-0.9,0.8-1.7,1.7-1.7
			C116.3,40.2,117.1,41,117.1,41.9"/>
		<path id="XMLID_72_" class="st15" d="M117.1,41.9c0,0.9-0.8,1.7-1.7,1.7c-0.9,0-1.7-0.8-1.7-1.7c0-0.9,0.8-1.7,1.7-1.7
			C116.3,40.2,117.1,41,117.1,41.9"/>
		<circle id="XMLID_71_" class="st16" cx="115.4" cy="41.9" r="1.7"/>
		<path id="XMLID_70_" class="st17" d="M117.1,45.3c0,0.9-0.8,1.7-1.7,1.7c-0.9,0-1.7-0.8-1.7-1.7c0-0.9,0.8-1.7,1.7-1.7
			C116.3,43.6,117.1,44.4,117.1,45.3"/>
		<path id="XMLID_69_" class="st15" d="M117.1,45.3c0,0.9-0.8,1.7-1.7,1.7c-0.9,0-1.7-0.8-1.7-1.7c0-0.9,0.8-1.7,1.7-1.7
			C116.3,43.6,117.1,44.4,117.1,45.3"/>
		<circle id="XMLID_68_" class="st16" cx="115.4" cy="45.3" r="1.7"/>
	</g>
	<g>
		<defs>
			<polygon id="XMLID_63_" points="99.7,50 130.3,52.1 130.2,15.9 99.7,15.9 			"/>
		</defs>
		<clipPath id="XMLID_204_">
			<use xlink:href="#XMLID_63_"  style="overflow:visible;"/>
		</clipPath>
		<path id="XMLID_66_" class="st18" d="M117.1,48.7c0,0.9-0.8,1.7-1.7,1.7c-0.9,0-1.7-0.8-1.7-1.7c0-0.9,0.8-1.7,1.7-1.7
			C116.3,47,117.1,47.8,117.1,48.7"/>
		<path id="XMLID_65_" class="st19" d="M117.1,48.7c0,0.9-0.8,1.7-1.7,1.7c-0.9,0-1.7-0.8-1.7-1.7c0-0.9,0.8-1.7,1.7-1.7
			C116.3,47,117.1,47.8,117.1,48.7"/>
		<circle id="XMLID_64_" class="st20" cx="115.4" cy="48.7" r="1.7"/>
	</g>
	<g>
		<defs>
			<rect id="XMLID_50_" x="4.8" y="10.4" width="133.5" height="60.8"/>
		</defs>
		<clipPath id="XMLID_205_">
			<use xlink:href="#XMLID_50_"  style="overflow:visible;"/>
		</clipPath>
		<path id="XMLID_62_" class="st21" d="M113.7,31.6c0,0.9-0.8,1.7-1.7,1.7c-0.9,0-1.7-0.8-1.7-1.7c0-0.9,0.8-1.7,1.7-1.7
			C112.9,29.9,113.7,30.7,113.7,31.6"/>
		<path id="XMLID_61_" class="st22" d="M113.7,31.6c0,0.9-0.8,1.7-1.7,1.7c-0.9,0-1.7-0.8-1.7-1.7c0-0.9,0.8-1.7,1.7-1.7
			C112.9,29.9,113.7,30.7,113.7,31.6"/>
		<circle id="XMLID_60_" class="st23" cx="112" cy="31.6" r="1.7"/>
		<path id="XMLID_59_" class="st21" d="M113.7,38.5c0,0.9-0.8,1.7-1.7,1.7c-0.9,0-1.7-0.8-1.7-1.7c0-0.9,0.8-1.7,1.7-1.7
			C112.9,36.8,113.7,37.5,113.7,38.5"/>
		<path id="XMLID_58_" class="st22" d="M113.7,38.5c0,0.9-0.8,1.7-1.7,1.7c-0.9,0-1.7-0.8-1.7-1.7c0-0.9,0.8-1.7,1.7-1.7
			C112.9,36.8,113.7,37.5,113.7,38.5"/>
		<circle id="XMLID_57_" class="st23" cx="112" cy="38.5" r="1.7"/>
		<path id="XMLID_56_" class="st21" d="M113.7,41.9c0,0.9-0.8,1.7-1.7,1.7c-0.9,0-1.7-0.8-1.7-1.7c0-0.9,0.8-1.7,1.7-1.7
			C112.9,40.2,113.7,41,113.7,41.9"/>
		<path id="XMLID_55_" class="st22" d="M113.7,41.9c0,0.9-0.8,1.7-1.7,1.7c-0.9,0-1.7-0.8-1.7-1.7c0-0.9,0.8-1.7,1.7-1.7
			C112.9,40.2,113.7,41,113.7,41.9"/>
		<circle id="XMLID_54_" class="st23" cx="112" cy="41.9" r="1.7"/>
		<path id="XMLID_53_" class="st21" d="M113.7,45.3c0,0.9-0.8,1.7-1.7,1.7c-0.9,0-1.7-0.8-1.7-1.7c0-0.9,0.8-1.7,1.7-1.7
			C112.9,43.6,113.7,44.4,113.7,45.3"/>
		<path id="XMLID_52_" class="st22" d="M113.7,45.3c0,0.9-0.8,1.7-1.7,1.7c-0.9,0-1.7-0.8-1.7-1.7c0-0.9,0.8-1.7,1.7-1.7
			C112.9,43.6,113.7,44.4,113.7,45.3"/>
		<circle id="XMLID_51_" class="st23" cx="112" cy="45.3" r="1.7"/>
	</g>
	<g>
		<defs>
			<polygon id="XMLID_46_" points="99.7,50 130.2,52 130.2,15.9 99.7,15.9 			"/>
		</defs>
		<clipPath id="XMLID_206_">
			<use xlink:href="#XMLID_46_"  style="overflow:visible;"/>
		</clipPath>
		<path id="XMLID_49_" class="st24" d="M113.7,48.7c0,0.9-0.8,1.7-1.7,1.7c-0.9,0-1.7-0.8-1.7-1.7c0-0.9,0.8-1.7,1.7-1.7
			C112.9,47,113.7,47.8,113.7,48.7"/>
		<path id="XMLID_48_" class="st25" d="M113.7,48.7c0,0.9-0.8,1.7-1.7,1.7c-0.9,0-1.7-0.8-1.7-1.7c0-0.9,0.8-1.7,1.7-1.7
			C112.9,47,113.7,47.8,113.7,48.7"/>
		<circle id="XMLID_47_" class="st26" cx="112" cy="48.7" r="1.7"/>
	</g>
	<g>
		<defs>
			<rect id="XMLID_36_" x="4.8" y="10.4" width="133.5" height="60.8"/>
		</defs>
		<clipPath id="XMLID_207_">
			<use xlink:href="#XMLID_36_"  style="overflow:visible;"/>
		</clipPath>
		<path id="XMLID_45_" class="st27" d="M110.2,38.5c0,0.9-0.8,1.7-1.7,1.7c-0.9,0-1.7-0.8-1.7-1.7c0-0.9,0.8-1.7,1.7-1.7
			C109.5,36.8,110.2,37.5,110.2,38.5"/>
		<path id="XMLID_44_" class="st28" d="M110.2,38.5c0,0.9-0.8,1.7-1.7,1.7c-0.9,0-1.7-0.8-1.7-1.7c0-0.9,0.8-1.7,1.7-1.7
			C109.5,36.8,110.2,37.5,110.2,38.5"/>
		<circle id="XMLID_43_" class="st29" cx="108.5" cy="38.5" r="1.7"/>
		<path id="XMLID_42_" class="st27" d="M110.2,41.9c0,0.9-0.8,1.7-1.7,1.7c-0.9,0-1.7-0.8-1.7-1.7c0-0.9,0.8-1.7,1.7-1.7
			C109.5,40.2,110.2,41,110.2,41.9"/>
		<path id="XMLID_41_" class="st28" d="M110.2,41.9c0,0.9-0.8,1.7-1.7,1.7c-0.9,0-1.7-0.8-1.7-1.7c0-0.9,0.8-1.7,1.7-1.7
			C109.5,40.2,110.2,41,110.2,41.9"/>
		<circle id="XMLID_40_" class="st29" cx="108.5" cy="41.9" r="1.7"/>
		<path id="XMLID_39_" class="st27" d="M110.2,45.3c0,0.9-0.8,1.7-1.7,1.7c-0.9,0-1.7-0.8-1.7-1.7c0-0.9,0.8-1.7,1.7-1.7
			C109.5,43.6,110.2,44.4,110.2,45.3"/>
		<path id="XMLID_38_" class="st28" d="M110.2,45.3c0,0.9-0.8,1.7-1.7,1.7c-0.9,0-1.7-0.8-1.7-1.7c0-0.9,0.8-1.7,1.7-1.7
			C109.5,43.6,110.2,44.4,110.2,45.3"/>
		<circle id="XMLID_37_" class="st29" cx="108.5" cy="45.3" r="1.7"/>
	</g>
	<g>
		<defs>
			<polygon id="XMLID_32_" points="99.7,50 130.4,52.3 130.2,15.9 99.7,15.9 			"/>
		</defs>
		<clipPath id="XMLID_208_">
			<use xlink:href="#XMLID_32_"  style="overflow:visible;"/>
		</clipPath>
		<path id="XMLID_35_" class="st30" d="M110.2,48.7c0,0.9-0.8,1.7-1.7,1.7c-0.9,0-1.7-0.8-1.7-1.7c0-0.9,0.8-1.7,1.7-1.7
			C109.5,47,110.2,47.8,110.2,48.7"/>
		<path id="XMLID_34_" class="st31" d="M110.2,48.7c0,0.9-0.8,1.7-1.7,1.7c-0.9,0-1.7-0.8-1.7-1.7c0-0.9,0.8-1.7,1.7-1.7
			C109.5,47,110.2,47.8,110.2,48.7"/>
		<circle id="XMLID_33_" class="st32" cx="108.5" cy="48.7" r="1.7"/>
	</g>
	<g>
		<defs>
			<rect id="XMLID_7_" x="4.8" y="10.4" width="133.5" height="60.8"/>
		</defs>
		<clipPath id="XMLID_209_">
			<use xlink:href="#XMLID_7_"  style="overflow:visible;"/>
		</clipPath>
		<path id="XMLID_31_" class="st33" d="M106.8,38.5c0,0.9-0.8,1.7-1.7,1.7c-0.9,0-1.7-0.8-1.7-1.7c0-0.9,0.8-1.7,1.7-1.7
			C106.1,36.8,106.8,37.5,106.8,38.5"/>
		<path id="XMLID_30_" class="st34" d="M106.8,38.5c0,0.9-0.8,1.7-1.7,1.7c-0.9,0-1.7-0.8-1.7-1.7c0-0.9,0.8-1.7,1.7-1.7
			C106.1,36.8,106.8,37.5,106.8,38.5"/>
		<circle id="XMLID_29_" class="st35" cx="105.1" cy="38.5" r="1.7"/>
		<path id="XMLID_28_" class="st33" d="M106.8,45.3c0,0.9-0.8,1.7-1.7,1.7c-0.9,0-1.7-0.8-1.7-1.7c0-0.9,0.8-1.7,1.7-1.7
			C106.1,43.6,106.8,44.4,106.8,45.3"/>
		<path id="XMLID_27_" class="st34" d="M106.8,45.3c0,0.9-0.8,1.7-1.7,1.7c-0.9,0-1.7-0.8-1.7-1.7c0-0.9,0.8-1.7,1.7-1.7
			C106.1,43.6,106.8,44.4,106.8,45.3"/>
		<circle id="XMLID_26_" class="st35" cx="105.1" cy="45.3" r="1.7"/>
		<path id="XMLID_25_" class="st33" d="M110.3,31.6c0,0.9-0.8,1.7-1.7,1.7c-0.9,0-1.7-0.8-1.7-1.7c0-0.9,0.8-1.7,1.7-1.7
			C109.5,29.9,110.3,30.7,110.3,31.6"/>
		<path id="XMLID_24_" class="st34" d="M110.3,31.6c0,0.9-0.8,1.7-1.7,1.7c-0.9,0-1.7-0.8-1.7-1.7c0-0.9,0.8-1.7,1.7-1.7
			C109.5,29.9,110.3,30.7,110.3,31.6"/>
		<circle id="XMLID_23_" class="st35" cx="108.6" cy="31.6" r="1.7"/>
		<path id="XMLID_22_" class="st36" d="M124,38.5c0,0.9-0.8,1.7-1.7,1.7c-0.9,0-1.7-0.8-1.7-1.7c0-0.9,0.8-1.7,1.7-1.7
			C123.2,36.7,124,37.5,124,38.5"/>
		<path id="XMLID_21_" class="st34" d="M124,38.5c0,0.9-0.8,1.7-1.7,1.7c-0.9,0-1.7-0.8-1.7-1.7c0-0.9,0.8-1.7,1.7-1.7
			C123.2,36.7,124,37.5,124,38.5"/>
		<circle id="XMLID_20_" class="st35" cx="122.2" cy="38.5" r="1.7"/>
		<path id="XMLID_19_" class="st36" d="M127.4,38.5c0,0.9-0.8,1.7-1.7,1.7c-0.9,0-1.7-0.8-1.7-1.7c0-0.9,0.8-1.7,1.7-1.7
			C126.6,36.7,127.4,37.5,127.4,38.5"/>
		<path id="XMLID_18_" class="st34" d="M127.4,38.5c0,0.9-0.8,1.7-1.7,1.7c-0.9,0-1.7-0.8-1.7-1.7c0-0.9,0.8-1.7,1.7-1.7
			C126.6,36.7,127.4,37.5,127.4,38.5"/>
		<circle id="XMLID_17_" class="st35" cx="125.7" cy="38.5" r="1.7"/>
		<path id="XMLID_16_" class="st33" d="M113.7,35.1c0,0.9-0.8,1.7-1.7,1.7c-0.9,0-1.7-0.8-1.7-1.7c0-0.9,0.8-1.7,1.7-1.7
			C112.9,33.4,113.7,34.2,113.7,35.1"/>
		<path id="XMLID_15_" class="st34" d="M113.7,35.1c0,0.9-0.8,1.7-1.7,1.7c-0.9,0-1.7-0.8-1.7-1.7c0-0.9,0.8-1.7,1.7-1.7
			C112.9,33.4,113.7,34.2,113.7,35.1"/>
		<circle id="XMLID_14_" class="st35" cx="112" cy="35.1" r="1.7"/>
		<path id="XMLID_13_" class="st33" d="M110.3,35.1c0,0.9-0.8,1.7-1.7,1.7c-0.9,0-1.7-0.8-1.7-1.7c0-0.9,0.8-1.7,1.7-1.7
			C109.5,33.4,110.3,34.2,110.3,35.1"/>
		<path id="XMLID_12_" class="st34" d="M110.3,35.1c0,0.9-0.8,1.7-1.7,1.7c-0.9,0-1.7-0.8-1.7-1.7c0-0.9,0.8-1.7,1.7-1.7
			C109.5,33.4,110.3,34.2,110.3,35.1"/>
		<circle id="XMLID_11_" class="st35" cx="108.6" cy="35.1" r="1.7"/>
		<path id="XMLID_10_" class="st33" d="M106.9,35.1c0,0.9-0.8,1.7-1.7,1.7c-0.9,0-1.7-0.8-1.7-1.7c0-0.9,0.8-1.7,1.7-1.7
			C106.1,33.4,106.9,34.2,106.9,35.1"/>
		<path id="XMLID_9_" class="st34" d="M106.9,35.1c0,0.9-0.8,1.7-1.7,1.7c-0.9,0-1.7-0.8-1.7-1.7c0-0.9,0.8-1.7,1.7-1.7
			C106.1,33.4,106.9,34.2,106.9,35.1"/>
		<circle id="XMLID_8_" class="st35" cx="105.1" cy="35.1" r="1.7"/>
	</g>
	<g>
		<path id="XMLID_6_" class="st37" d="M103.4,35.1c0,0.9-0.8,1.7-1.7,1.7S100,36,100,35.1c0-0.9,0.8-1.7,1.7-1.7
			S103.4,34.2,103.4,35.1"/>
		<path id="XMLID_5_" class="st38" d="M103.4,35.1c0,0.9-0.8,1.7-1.7,1.7S100,36,100,35.1c0-0.9,0.8-1.7,1.7-1.7
			S103.4,34.2,103.4,35.1"/>
		<circle id="XMLID_4_" class="st39" cx="101.7" cy="35.1" r="1.7"/>
		<path id="XMLID_3_" class="st40" d="M130.8,41.9c0,0.9-0.8,1.7-1.7,1.7c-0.9,0-1.7-0.8-1.7-1.7c0-0.9,0.8-1.7,1.7-1.7
			C130,40.2,130.8,41,130.8,41.9"/>
		<path id="XMLID_2_" class="st38" d="M130.8,41.9c0,0.9-0.8,1.7-1.7,1.7c-0.9,0-1.7-0.8-1.7-1.7c0-0.9,0.8-1.7,1.7-1.7
			C130,40.2,130.8,41,130.8,41.9"/>
		<circle id="XMLID_1_" class="st39" cx="129.1" cy="41.9" r="1.7"/>
	</g>
</g>
<g id="XMLID_188_">
</g>
<g id="XMLID_189_">
</g>
<g id="XMLID_190_">
</g>
<g id="XMLID_191_">
</g>
<g id="XMLID_192_">
</g>
<g id="XMLID_193_">
</g>
</svg>
